<?xml version="1.0" encoding="UTF-8"?>
<!-- Created with Inkscape (http://www.inkscape.org/) -->
<svg width="3508" height="2480" version="1.1" viewBox="0 0 3508 2480" xmlns="http://www.w3.org/2000/svg" xmlns:cc="http://creativecommons.org/ns#" xmlns:dc="http://purl.org/dc/elements/1.1/" xmlns:rdf="http://www.w3.org/1999/02/22-rdf-syntax-ns#">
 <metadata>
  <rdf:RDF>
   <cc:Work rdf:about="">
    <dc:format>image/svg+xml</dc:format>
    <dc:type rdf:resource="http://purl.org/dc/dcmitype/StillImage"/>
    <dc:title/>
   </cc:Work>
  </rdf:RDF>
 </metadata>
 <path d="m1080.2 276.25c-65.462-0.0892-98.187 0.95814-139.95 3.2598-73.934 4.0743-181.98 13.634-316.23 27.98-94.414 10.089-130.95 13.129-228.5 19.01-171.52 10.34-251.98 19.13-357.35 39.035-10.09 1.906-18.752 3.4648-19.25 3.4648-1.8854 0-4.9043 4.1077-4.9043 6.6719 0 1.4692 0.74405 3.4942 1.6543 4.5 0.91024 1.0058 2.8818 1.8281 4.3809 1.8281 1.499 0 16.167-2.446 32.596-5.4356 99.69-18.141 179.13-26.838 320.37-35.07 125.21-7.2986 164.23-10.399 289.5-23 222.45-22.376 286.86-26.668 403.5-26.881 62.89-0.11468 194.32 1.0255 218.5 1.8945 7.15 0.25702 30.775 0.70066 52.5 0.98633 21.725 0.28566 52.55 0.76106 68.5 1.0566s65.9 1.1956 111 2c145.37 2.5928 220.57 5.1756 320 10.988 135.37 7.9138 204.35 14.45 374 35.439 117.51 14.539 126.2 15.582 170.5 20.473 60.537 6.6834 102.71 10.391 138 12.133 8.4707 0.41796 14.541 1.1962 16.295 2.0898 2.3378 1.191 4.7947 1.2414 15 0.30273 6.7123-0.61742 24.355-1.4997 39.205-1.959 14.85-0.45931 29.552-1.1586 32.672-1.5547 4.3278-0.5495 6.8439-0.29826 10.617 1.0586 4.6099 1.6577 5.1051 1.6668 7.3007 0.12891 1.2955-0.90738 4.1678-1.6571 6.3829-1.6641 14.678-0.0466 73.521-7.8543 158.03-20.969 175.48-27.233 256.59-36.603 385-44.479 52.252-3.2046 65.506-3.6783 118.5-4.2324 55.764-0.58305 88.394 0.26785 126.5 3.2969 10.45 0.83065 27.1 1.7654 37 2.0781 17.21 0.5437 18.08 0.47999 19.82-1.4629 2.6461-2.9539 1.9233-8.3574-1.3203-9.8711-4.0229-1.8774-28.861-5.2043-51-6.8301-113.46-8.3323-273.17-2.2913-436.5 16.51-48.994 5.6396-88.937 11.228-182 25.465-103.85 15.886-136.04 20.238-150.5 20.338-3.575 0.0246-16.85 1.2928-29.5 2.8203-22.028 2.66-24.964 2.7796-69.5 2.8125-28.567 0.0211-53.442-0.46621-64.5-1.2637-70.709-5.0992-136.5-12.161-286-30.695-150.18-18.618-192.37-23.291-261.5-28.967-145.2-11.922-258.85-16.404-483-19.045-27.775-0.32726-101.58-1.2381-164-2.0254-110.18-1.3896-180.9-2.1474-231.81-2.2168z" fill="#008000"/>
 <path d="m2699 391c-6.3382 0-27.669 12.872-40.58 24.488-15.493 13.938-33.97 37.861-47.85 61.955-16.648 28.898-33.096 65.097-72.027 158.51-9.7314 23.35-27.736 65.875-40.01 94.5-12.274 28.625-29.81 70.227-38.967 92.451-22.272 54.054-30.494 72.927-52.541 120.59-22.438 48.513-30.001 66.426-36.32 86.041-3.8091 11.822-7.6797 29.216-7.6797 34.508v3.1817c-0.013 0.1008-0.016 0.1196-0.016 0.2444-0.1591 6.1536 0.234 12.405 0.9461 17.602l0.9121 3.1015 0.7871 2.0977c3.5853 10.97 9.0642 18.739 17.941 25.441 6.055 4.5719 6.9503 5.0402 16 8.3691 7.3035 2.6865 11.5 1.0432 11.5-4.5039 0-4.0512-0.8391-5.0369-10.215-11.98-8.4869-6.2854-12.778-11.119-15.74-17.736l-1.9492-4.3515c-1.3387-8.021-1.1301-14.737-1.1301-22.433 0-5.6105 5.0641-24.476 10.459-38.965 7.6848-20.639 12.426-31.366 43.807-99.102 11.569-24.973 24.978-55.898 39.238-90.5 11.525-27.967 28.631-68.476 47.506-112.5 14.094-32.872 21.441-50.214 38.98-92 58.824-140.14 77.124-172.14 118.85-207.82 6.9634-5.9539 15.209-12.731 18.324-15.061 3.1153-2.3292 5.9278-4.9203 6.25-5.7598 1.9773-5.2004-1.2393-10.375-6.4532-10.375z" fill="#f00"/>
 <path d="m2401.1 396.26c-0.8423-0.0161-1.6947 0.14906-2.5078 0.51953-1.3333 0.60749-7.4665 8.2169-13.629 16.91-26.652 37.599-52.318 68.549-76.592 92.359-17.687 17.35-27.724 25.974-46.488 39.947-69.174 51.512-162.19 85-236.1 85-49.059 0-91.143-13.23-139.27-43.785-8.9029-5.6525-26.591-17.637-52-35.232-40.472-28.025-63.88-40.872-93-51.035-49.143-17.152-98.054-16.314-132.5 2.2676-22.018 11.877-37.025 28.102-48.928 52.9-7.1591 14.915-11.075 26.496-18.557 54.885-13.662 51.842-21.11 72.116-35.189 95.775-32.571 54.732-97.2 102.66-185.56 137.61-128.18 50.698-239.81 55.741-321.91 14.541-36.768-18.451-66.533-43.607-118.82-100.43-36.032-39.152-63.61-65.193-88.031-83.121-43.281-31.774-90.297-52.053-140.07-60.41-16.234-2.7258-45.968-3.7158-60.668-2.0215-57.821 6.6646-98.729 37.456-117.29 88.287-8.7742 24.027-12.489 45.485-17.443 100.77-4.3316 48.334-7.6781 68.378-15.186 90.957-7.1141 21.396-13.64 34.068-26.264 50.992-30.708 41.171-87.546 74.681-153.72 90.635-23.309 5.6191-37.458 7.4909-61.357 8.1113-39.503 1.0257-64.594-3.8858-93.785-18.354-20.974-10.395-38.722-24.226-55.309-43.102-8.685-9.8838-11.413-11.449-15.398-8.8379-6.3372 4.1523-4.337 8.253 12.758 26.154 23.073 24.162 51.167 41.404 82.137 50.41 9.3806 2.728 27.778 6.3929 37.098 7.3906 2.2 0.2356 15.7 0.2929 30 0.127 20.474-0.2375 28.733-0.7455 38.859-2.3887 43.994-7.1392 86.483-21.986 121.29-42.381 57.831-33.883 92.251-79.291 105.88-139.69 3.86-17.1 6.0592-33.064 9.9883-72.525 5.0165-50.383 9.0217-71.724 17.443-92.924 17.739-44.655 51.045-69.494 101.44-75.652 20.014-2.4459 51.274-0.18642 76.094 5.5 27.119 6.2132 63.336 21.009 87 35.541 38.28 23.507 61.711 43.968 113.98 99.535 49.83 52.975 70.841 71.659 102.31 90.969 11.355 6.9678 34.353 18.097 47.322 22.9 81.452 30.166 187.52 21.556 305.2-24.773 92.108-36.262 156.67-82.416 192.46-137.6 17.196-26.506 27.843-52.896 40.752-101 7.746-28.866 12.077-42.214 17.68-54.5 18.22-39.954 50.443-59.481 98.178-59.496 28.899-9e-3 57.098 7.4113 91.119 23.979 18.681 9.0969 40.13 22.431 71.5 44.447 27.356 19.2 41.366 28.469 54.4 35.99 58.78 33.92 113.35 44.348 180.85 34.559 55.452-8.0417 120.28-32.565 171.87-65.01 24.843-15.626 30.665-20.558 64.881-54.973 17.875-17.979 38.269-38.008 45.32-44.512 18.062-16.658 33.84-38.61 49.604-69.01 4.5536-8.7818 5.0682-10.363 4.1563-12.762-1.0324-2.7154-3.4693-4.401-5.9961-4.4492z" fill="#008000"/>
 <path d="m2690.8 440.46c-1.6483 0.0265-3.3182 0.64184-4.6856 1.9785-2.5721 2.5142-12.134 38.653-16.023 60.561-5.2856 29.773-7.3237 63.047-5.2051 85 4.234 43.871 17.732 75.577 43.045 101.12 30.58 30.855 70.462 44.883 127.6 44.883 44.347 0 74.236-5.1452 176.42-30.367 43.824-10.817 76.85-17.973 99.5-21.559 84.044-13.305 147.65-4.4588 189.51 26.355 39.782 29.286 57.484 67.548 68.963 149.07 12.184 86.531 17.678 110.55 34.16 149.33 11.612 27.321 32.393 62.079 45.689 76.42 2.8995 3.1273 6.6205 3.5638 9.3477 1.0957 3.1792-2.8772 2.1458-6.4872-5.2696-18.422-23.067-37.126-34.91-61.082-44.207-89.424-10-30.485-13.627-48.453-22.205-110-6.934-49.75-11.196-69.723-19.947-93.469-24.11-65.424-72.822-102.04-149.04-112.03-13.752-1.8032-47.785-2.3761-64-1.0781-41.759 3.3426-76.606 9.9596-154 29.24-87.748 21.86-123.28 27.84-165.42 27.84-35.282 0-61.316-5.1621-84.564-16.77-36.536-18.241-58.06-48.287-66.723-93.141-1.991-10.31-2.2366-14.681-2.2246-39.59 0.01-21.165 0.44-31.051 1.7617-40.5 2.3937-17.113 7.0484-42.422 11.205-60.934 1.906-8.4885 3.4648-16.894 3.4648-18.678 0-4.1986-3.5261-6.9859-7.1523-6.9277z" fill="#008000"/>
 <g fill="#4d4d4d">
  <path d="m2402.9 529.17c-33.622-0.0202-36.904 1.6348-36.904 8.3066 0 3.9699 3.4674 7.4237 8.1074 8.0762 1.8664 0.26243 27.468 0.98768 56.893 1.6113s59.8 1.4501 67.5 1.8379c16.124 0.81194 35.299 0.28695 40.752-1.1172 6.6647-1.7162 9.2457-9.6012 4.7187-14.42-2.1358-2.2735-2.4648-2.302-33.314-2.873-17.136-0.31723-52.82-0.84919-79.297-1.1816-11.323-0.14217-20.696-0.23556-28.455-0.24023z"/>
  <path d="m2293.8 631.14c-6.0228 0.0434-11.818 3.7351-11.818 8.7266 0 3.576 4.2762 7.5561 9.7812 9.1035 6.1757 1.7359 25.606 3.9108 45.719 5.1172 10.45 0.62677 26.425 1.993 35.5 3.0371s25.5 2.5825 36.5 3.418c11 0.83546 20.45 1.695 21 1.9102 0.55 0.21515 15.771 0.42729 33.826 0.47071l32.828 0.0781 2.9219-2.9238c3.2699-3.2698 3.7169-6.6442 1.455-11.018-2.4002-4.6419-5.3982-5.0585-36.43-5.0625-28.75-4e-3 -62.456-1.7473-86.602-4.4805-7.15-0.80934-22.45-1.9393-34-2.5117-28.798-1.4273-40.69-2.6507-44.789-4.6055-1.8518-0.88309-3.885-1.2742-5.8925-1.2598z"/>
  <path d="m2255.3 732.76c-2.7333-6e-3 -5.3295-1.1e-4 -7.7735 0.0176-11.731 0.0844-19.937 0.43843-22.77 1.0742-8.3192 1.8673-11.158 6.9641-6.8457 12.289 1.8775 2.3183 2.2419 2.3632 20.25 2.4629 24.03 0.13301 44.826 0.91318 103.84 3.8926 18.342 0.92603 28.485 1.7014 29 2.2188 0.275 0.27614 8.2644 0.31617 17.754 0.0879 15.431-0.37129 17.544-0.63203 20-2.459 4.717-3.5087 4.2561-10.251-0.8828-12.908-2.3513-1.2159-8.0875-1.8131-23.736-2.4726-11.349-0.47834-37.06-1.5676-57.135-2.4199-26.755-1.136-52.566-1.7433-71.699-1.7832z"/>
  <path d="m2268.3 838.01c-68.497 7e-3 -118.68 1.2311-125.53 3.0625-6.0582 1.6203-7.8896 8.1161-3.3047 11.723 2.394 1.8831 4.3872 1.9254 71.25 1.5234 37.833-0.22744 82.737 3e-3 99.787 0.51171 17.05 0.50892 37.452 0.86833 45.34 0.79883 13.792-0.12163 14.414-0.21788 16.25-2.4883 2.3735-2.9346 2.4208-5.2895 0.1602-8.0703-1.4549-1.7897-3.4362-2.3194-11.75-3.1465-5.5-0.5472-13.243-1.6542-17.207-2.459-5.9085-1.1994-19.429-1.4611-75-1.4551z"/>
  <path d="m2154.7 930.05c-4.3198-8e-3 -8.1166 0.11953-11.105 0.40039-6.3566 0.59732-8.3531 1.2008-10.25 3.0976-2.9784 2.9783-2.9932 5.9008-0.047 8.8477 2.2426 2.2426 2.9814 2.3248 25.75 2.8984 16.344 0.41178 27.074 1.1973 35.441 2.5938 19.642 3.2783 36.629 4.8552 86.5 8.0273 18.012 1.1457 39.479 1.2289 42.279 0.16406 6.0851-2.3135 7.5762-7.9926 3.1816-12.121-2.4983-2.3471-3.046-2.4061-33.75-3.6328-41.468-1.6568-71.412-3.8893-92.711-6.9141-14.664-2.0826-32.33-3.3378-45.289-3.3613z"/>
  <path d="m2201.2 1025.5c-39.124-0.076-81.982 0.1687-98.643 0.7929l-32.965 1.2344-1.4395 2.5684c-2.7085 4.8321 0.3464 9.4498 7.1817 10.854 1.5482 0.318 46.773 0.5781 100.5 0.5781 106.05 0 102.84 0.1681 105.18-5.4824 0.9391-2.2673 0.8663-3.3886-0.377-5.793-0.848-1.6399-2.2879-3.2686-3.2011-3.6191-1.7198-0.66-37.11-1.0567-76.234-1.1328z"/>
  <path d="m1648.5 1066.7-0.021 0.012c-95.111 0.039-171.75 0.1597-206.95 0.3516-70.4 0.3837-383.82 1.0225-696.5 1.4199-391.59 0.4978-569.36 1.0489-571.26 1.7695-4.6477 1.7598-5.0561 7.7887-0.73633 10.857 2.3861 1.6951 29.559 1.7984 596.5 2.2989 326.7 0.2885 595.35 0.7904 597 1.1152s226.73 0.5814 500.17 0.5684l496.81-0.023v-0.014c-0.8746-6.5777-1.0955-11.907-0.7317-17.725l-396.46-0.4805c-109.11-0.1322-222.69-0.172-317.8-0.1328z"/>
  <path d="m2382.4 1067c1e-4 0 0 0 0 0.01-0.046 6.2324 0.4493 11.623 1.0657 18.503l429.39-0.6055c412.02-0.581 439.21-0.7887 445.46-3.3848 4.0721-1.6926 3.3735-9.6455-0.9941-11.309-7.9753-3.0367-31.154-3.2011-451.17-3.2011z"/>
 </g>

 <g id="waves" transform="scale(0.5) translate(7000, 2480)">
 <path d="m43.982 2079.8c-3.7754-3.7754-2.6686-7.3495 6.162-19.9 48.565-69.022 107.36-126.22 165.84-161.33 30.709-18.439 59.987-30.015 91-35.982 9.8336-1.8919 14.76-2.2046 34-2.1582 21.331 0.052 23.227 0.2144 36.5 3.1363 24.235 5.3351 47.828 15.304 71.586 30.248 20.98 13.196 40.688 28.597 72.438 56.607 60.12 53.038 79.53 67.705 110.33 83.368 49.725 25.29 102.63 27.908 150.25 7.4352 6.9349-2.9814 13.25-5.4207 14.034-5.4207 3.0651 0 5.8696 3.0587 5.8696 6.4017 0 4.28-1.3148 5.2905-14.349 11.028-35.241 15.513-64.265 20.781-94.651 17.181-31.245-3.7015-60.393-14.833-91.95-35.115-23.165-14.889-38.891-27.556-82.946-66.81-38.992-34.743-56.429-48.687-77.434-61.924-63.479-40.003-125.1-41.697-197.35-5.4266-35.05 17.594-68.979 43.309-106.4 80.641-29.144 29.074-50.977 54.549-72.868 85.024-4.5434 6.325-9.1634 12.288-10.267 13.25-2.6767 2.3354-7.3174 2.2168-9.7842-0.25zm1397-945.94c-48.281-3.9238-94.929-20.92-136.66-49.791-36.997-25.597-68.598-57.7-120.86-122.77-35.413-44.098-51.52-62.482-73.596-84.001-36.546-35.623-69.421-54.976-103.52-60.94-11.558-2.0216-34.157-2.021-45.874 0-59.042 10.19-123.71 60.577-186.68 145.45-26.576 35.822-58.706 89.482-76.379 127.56-5.003 10.779-7.265 13.434-11.444 13.434-4.4812 0-7.3512-3.3478-6.7433-7.8661 0.5927-4.406 17.258-38.566 29.699-60.875 32.834-58.879 69.707-109.02 110.37-150.09 64.558-65.203 127.8-93.698 186.97-84.235 46.936 7.5071 91.008 35.833 140.14 90.069 12.721 14.043 22.538 25.694 61.556 73.057 45.454 55.176 74.865 84.086 108.51 106.66 33.159 22.251 66.656 35.639 106 42.365 17.638 3.0151 53.216 3.7305 72 1.4477 41.374-5.0282 84.859-18.739 112.62-35.51 5.8847-3.5549 11.119-6.0242 12.771-6.0242 5.6826 0 8.1346 6.8026 3.8585 10.704-5.6179 5.1261-37.256 23.256-52.918 30.324-19.995 9.0233-45.861 16.153-70.832 19.522-13.397 1.8079-45.308 2.6267-59 1.5138zm-1439-964.06c-3.5745-3.5745-2.5755-7.209 5.1449-18.716 45.354-67.599 104.25-116.88 165.36-138.36 27.307-9.5985 53.59-13.497 85-12.609 33.209 0.93892 55.187 4.7461 114.5 19.835 51.046 12.986 57.437 14.527 78 18.816 35.159 7.332 59.984 10.508 93.5 11.962 58.914 2.556 117.68-5.6895 189-26.517 26.69-7.7948 29.802-8.3558 32.55-5.8691 2.5019 2.2641 2.5098 6.9952 0.015 9.131-2.7803 2.3805-24.86 10.527-44.065 16.258-57.118 17.044-102.83 24.048-157.05 24.06-58.455 0.0136-98.023-6.2902-187.95-29.943-67.185-17.671-92.244-22.06-125.86-22.043-57.143 0.0292-107.11 20.403-159.06 64.854-20.325 17.391-49.57 49.475-68.033 74.638-10.002 13.632-12.825 16.5-16.242 16.5-1.5421 0-3.7038-0.9-4.8038-2z" fill="#005aa7"/>
 <animateTransform attributeName="transform"
                    attributeType="XML"
                    type="translate"
                    from="7000 2480"
                    to="-100 2480"
                    dur="10s"
                    repeatCount="indefinite"/>
 </g>

</svg>
