<?xml version="1.0" encoding="UTF-8"?>
<!-- Created with Inkscape (http://www.inkscape.org/) -->
<svg width="2480" height="3508" version="1.1" viewBox="0 0 2480 3508" xmlns="http://www.w3.org/2000/svg" xmlns:cc="http://creativecommons.org/ns#" xmlns:dc="http://purl.org/dc/elements/1.1/" xmlns:rdf="http://www.w3.org/1999/02/22-rdf-syntax-ns#">
 <metadata>
  <rdf:RDF>
   <cc:Work rdf:about="">
    <dc:format>image/svg+xml</dc:format>
    <dc:type rdf:resource="http://purl.org/dc/dcmitype/StillImage"/>
    <dc:title/>
   </cc:Work>
  </rdf:RDF>
 </metadata>
 <path d="m2087.3 3503.2c-11.944-9.9405-36.61-38.689-58.594-68.29-19.09-25.705-45.69-67.207-59.21-92.381-2.6584-4.95-5.6005-10.125-6.5379-11.5-0.9375-1.375-4.2174-7.348-7.2887-13.273-16.072-31.007-34.261-47.848-60.668-56.172-33.335-10.507-69.446-5.6067-103.4 14.032-4.4567 2.5777-19.353 12.175-33.103 21.328-35.381 23.551-50.964 32.04-72.702 39.607-18.605 6.476-27.732 7.8965-50.798 7.9062-23.347 0.01-34.732-1.6324-59.268-8.549-74.034-20.869-115.45-54.333-141.16-114.04-9.0662-21.061-14.686-39.618-18.682-61.69-2.7174-15.01-3.6937-50.034-1.9322-69.32 1.1422-12.506 2.385-21.57 9.9804-72.785 1.6688-11.253 4.4119-32.403 6.0958-47 3.3283-28.854 6.1841-51.414 13.803-109.04 2.9018-21.948 4.9898-41.659 5.0346-47.528 0.102-13.335 3.4918-26.685 10.218-40.239 12.195-24.575 37.597-42.53 68.935-48.726 17.735-3.5064 86.265-5.1538 108.97-2.6196 6.325 0.7059 21.175 2.6225 33 4.2591 30.119 4.1685 55.838 4.8841 72.583 2.0196 22.902-3.9176 44.615-12.954 62.975-26.208 26.047-18.804 39.557-38.063 46.616-66.458 3.2475-13.062 3.2877-40.04 0.079-52.734-2.9181-11.543-7.2461-19.859-14.044-26.986-9.4139-9.8695-20.96-14.955-41.841-18.427-17.394-2.8928-94.666-2.5278-142.37 0.6725-8.525 0.572-21.8 1.4685-29.5 1.9924-7.7 0.5238-24.125 0.9503-36.5 0.9477-38.946-0.01-60.512-4.354-88.5-17.834-13.376-6.442-31.635-16.709-38.5-21.648-2.475-1.7807-6.8473-4.4179-9.7162-5.8605-15.502-7.7952-62.223-52.212-90.063-85.624-29.99-35.99-52.028-79.994-60.898-121.6-2.6044-12.215-2.7496-14.285-2.729-38.902 0.02-24.228 0.244-27.466 3.2828-47.5 5.7244-37.74 13.842-76.706 32.601-156.5 16.856-71.699 20.452-83.428 49.827-162.54 24.019-64.684 39.411-96.324 73.439-150.96 6.3367-10.175 12.552-19.625 13.811-21 1.2594-1.375 2.6125-4.3 3.007-6.5 1.2087-6.7414 11.138-34.666 16.858-47.41 13.12-29.23 30.21-54.63 50.581-75.176 44.894-45.28 98.282-62.751 151.08-49.439 12.728 3.2093 29 9.0028 61.924 22.048 59.275 23.486 82.987 29.739 113 29.795 21.818 0.041 36.338-3.4555 56.646-13.641 25.73-12.904 41.942-28.785 77.248-75.668 9.7369-12.93 25.765-33.859 35.619-46.509 42.298-54.303 53.965-72.933 58.127-92.824 2.3774-11.361 0.5601-19.128-6.2356-26.65-5.3651-5.9384-11.341-9.7775-20.323-13.056-17.748-6.4771-36.333-8.4213-95.081-9.9463-42.886-1.1133-55.432-1.9812-87.5-6.0538-44.418-5.6409-85.718-13.312-105.94-19.676-40.018-12.598-64.933-36.333-78.51-74.794-8.7876-24.894-14.845-61.092-18.049-107.86-0.5598-8.1706-1.8926-18.296-2.9619-22.5-18.956-74.534-32.785-179.84-37.056-282.14-3.1087-74.482-9.2078-102.02-26.489-119.59-7.5834-7.7114-14.498-10.605-25.5-10.671-14.869-0.0894-28.19 6.5558-43.621 21.762-27.617 27.214-40.846 61.516-46.857 121.5-5.5926 55.809-7.8621 70.653-14.074 92.053-8.2568 28.445-21.585 54.746-43.808 86.447-20.407 29.11-37.866 49.492-74.438 86.898-30.371 31.064-39.573 41.948-45.704 54.06-11.347 22.418-8.0521 43.075 9.6504 60.501 4.8198 4.7444 20.795 15.375 32.14 21.387 4.6057 2.4409 4.9508 2.4799 9 1.0179 2.3158-0.8361 9.9827-3.5439 17.037-6.0172 7.0548-2.4733 19.655-7.6621 28-11.531 39.328-18.231 54.063-22.4 70.173-19.851 26.769 4.2344 46.52 29.476 54.567 69.736 3.0812 15.414 3.7541 39.707 1.4769 53.326-6.5472 39.155-29.762 67.524-62.266 76.092-10.102 2.6628-26.107 2.8617-35.278 0.4383-20.738-5.4797-34.516-14.137-64.5-40.529-28.908-25.444-42.82-33.028-60.593-33.028-27.68 0-48.617 22.587-58.983 63.632-7.0604 27.956-8.0851 46.579-7.7237 140.37 0.2703 70.121 0.1284 78.69-1.4896 90-5.5869 39.053-16.739 64.23-37.116 83.793-20.898 20.063-46.543 27.652-73.217 21.669-14.089-3.1606-26.867-11.12-40.619-25.302-16.201-16.708-28.892-38.656-47.736-82.556-14.088-32.82-26.513-56.18-38.658-72.678-7.0637-9.5954-23.654-26.199-33.323-33.351-26.416-19.538-57.131-27.793-91.543-24.604-48.012 4.4504-90.98 18.697-190 62.999-51.566 23.07-84.914 34.074-141 46.526-74.42 16.521-108.1 28.673-169 60.966-15.95 8.4582-31.337 16.298-34.193 17.422-2.8559 1.1239-7.2801 3.6368-9.8316 5.5844-11.595 8.8506-28.29 16.474-55.476 25.333-33.865 11.035-57.912 15.257-98.78 17.344-24.922 1.2726-64.99 0.2921-105.72-2.5872-11-0.7776-31.025-1.9241-44.5-2.5477-27.902-1.2914-36.565-2.9593-39-7.5088-3.0339-5.6689 1.7875-10.373 12.765-12.455 5.7571-1.0918 40.893-0.047 81.735 2.4292 94.992 5.7606 144.65 1.3842 198-17.45 22.775-8.0403 31.17-11.618 35.538-15.145 5.2383-4.2303 16.486-10.829 41.962-24.618 69.255-37.484 96.638-47.447 190.5-69.308 57.3-13.346 86.482-23.626 154.35-54.376 65.388-29.628 104.56-43.267 145.65-50.714 11.392-2.0646 16.03-2.3524 37.5-2.3268 19.17 0.023 26.567 0.4164 34 1.8092 50.031 9.3747 90.708 44.313 120.36 103.38 2.4238 4.8284 9.907 21.379 16.629 36.779 6.7222 15.4 14.904 33.274 18.181 39.719 14.635 28.781 30.012 46.749 46.807 54.692 18.132 8.575 39.903 6.2009 57.358-6.2546 22.877-16.324 35.317-44.06 39.764-88.656 0.8325-8.3472 0.9078-27.538 0.2748-70-0.9709-65.124-0.8299-88.086 0.6627-108 4.6958-62.647 23.973-102.39 57.465-118.46 11.396-5.4705 16.008-6.5363 28.283-6.5363 24.192 0 41.157 8.7257 75.717 38.944 18.174 15.891 29.116 24.02 39 28.972 19.76 9.9012 38.419 9.5914 55.919-0.9284 7.5962-4.5664 18.146-15.967 22.765-24.602 8.1749-15.282 11.952-37.246 9.9685-57.976-2.5737-26.905-11.088-49.644-22.541-60.201-7.776-7.1676-11.763-8.7029-22.611-8.706-11.776 0-18.605 2.1615-45 14.267-34.245 15.705-43.18 18.524-59 18.612-9.97 0.055-12.897-0.3416-22-2.9833-5.775-1.676-12.075-3.862-14-4.858-7.7439-4.0064-18.463-12.249-24.8-19.07-12.808-13.786-18.212-26.206-18.979-43.613-0.7692-17.465 3.6929-32 15.059-49.054 7.8745-11.816 16.232-21.334 40.216-45.802 32.756-33.417 50.116-53.508 69.557-80.5 25.213-35.005 38.747-61.499 46.487-91 4.6198-17.609 6.9787-33.029 9.9433-65 4.7587-51.319 8.8547-73.112 18.213-96.906 17.017-43.268 47.02-74.357 79.715-82.599 34.175-8.6157 64.084 11.025 76.908 50.506 7.2505 22.32 9.762 43.566 11.703 99 1.717 49.036 4.0862 81.261 9.08 123.5 7.4426 62.952 18.528 126.71 22.862 131.5 3.9525 4.366 6.2425 10.72 6.6381 18.418 2.8905 56.25 5.2244 78.884 10.96 106.29 6.4618 30.878 18.642 55.447 33.636 67.847 22.442 18.56 48.071 26.058 127.8 37.389 34.617 4.9198 53.811 6.4371 95.772 7.5711 60.603 1.6377 80.134 3.5157 99.248 9.5425 39.385 12.419 54.437 39.258 42.405 75.614-6.745 20.381-19.451 39.746-61.836 94.246-9.4442 12.143-24.126 31.304-32.625 42.579-18.356 24.349-27.675 35.745-37.898 46.342-45.646 47.317-97.463 61.217-164.07 44.012-15.549-4.0167-30.906-9.4671-68.179-24.198-48.978-19.357-61.896-23.158-83.821-24.664-35.016-2.4052-74.43 14.468-105.67 45.239-28.313 27.885-51.456 69.071-69.347 123.41-1.0223 3.1053-3.9802 8.9553-6.5729 13-23.905 37.292-44.244 75.02-58.518 108.55-8.6982 20.431-36.693 94.697-45.538 120.81-7.1351 21.062-15.845 52.058-22.762 81-14.385 60.196-17.066 71.61-20.592 87.654-4.6668 21.235-12.227 62.052-15.067 81.346-2.662 18.083-3.6475 49.734-1.9667 63.16 5.3513 42.745 30.989 93.943 67.407 134.61 14.595 16.298 45.173 46.617 59.631 59.126 6.875 5.9486 13.262 11.686 14.192 12.75 0.9308 1.0638 4.2473 2.5997 7.3699 3.4131 3.1227 0.8133 12.246 5.1469 20.275 9.6301 26.994 15.074 44.766 22.182 63.665 25.465 13.501 2.3451 58.347 2.3788 89.498 0.067 55.245-4.0996 128.57-5.2687 151.5-2.4154 17.639 2.1952 31.147 5.8419 42.5 11.473 7.7208 3.8299 11.116 6.3052 18.127 13.217 7.3263 7.2221 9.326 9.9476 13.262 18.076 5.5067 11.371 9.4216 25.963 10.15 37.83 0.2901 4.7294 1.2728 12.138 2.1839 16.463 4.9123 23.321-8.0749 60.536-30.758 88.136-7.0212 8.5432-26.106 27.455-35.003 34.686-40.867 33.215-69.596 45.822-104.39 45.81-21.571-0.01-37.067-3.8524-71.574-17.76-52.692-21.236-65.835-23.53-94.007-16.406-22.126 5.5949-36.05 13.227-49.154 26.943-4.1683 4.3629-9.5103 11.24-11.871 15.282-6.08 10.41-10.968 24.59-10.968 31.819 0 3.1863-1.3325 14.98-2.961 26.209-5.2479 36.184-11.85 87.752-14.52 113.42-3.2202 30.955-6.4289 54.929-11.51 86-7.0929 43.37-7.4696 47.041-7.4403 72.5 0.02 17.416 0.4615 25.982 1.7048 33.088 5.6734 32.424 19.278 68.344 34.811 91.912 8.5452 12.965 27.126 31.465 40.471 40.295 19.696 13.031 49.033 25.349 76.473 32.109 41.341 10.184 69.293 8.8253 101.98-4.956 15.431-6.5062 29.243-14.512 59.943-34.746 38.639-25.466 55.054-33.428 80.059-38.834 8.6717-1.8748 13.611-2.2732 28.49-2.298 19.855-0.033 27.974 1.047 42 5.5887 31.514 10.204 52.6 28.97 72.157 64.217 4.8886 8.8108 4.9692 8.8919 11.026 11.085 8.1722 2.9591 17.135 9.5319 26.818 19.666 9.2978 9.7315 14.043 15.95 33.482 43.873 23.185 33.305 34.946 47.967 50.144 62.515 16.42 15.718 29.905 25.162 56.373 39.485 22.403 12.122 30.286 17.3 31.065 20.404 0.3426 1.365 0.329 2.9575-0.03 3.5388-0.3912 0.633-4.8317 1.0568-11.074 1.0568-10.139 0-10.688-0.1184-20.308-4.3839-30.84-13.674-55.297-30.624-77.78-53.904-14.014-14.511-25.198-28.76-44.514-56.712-15.608-22.586-24.626-34.755-27.434-37.019-2.2403-1.806-1.6971-0.8754 15.32 26.244 25.65 40.879 50.206 72.799 81.134 105.47 18.56 19.604 18.774 20.307 6.1736 20.307h-8.9481l-5.8019-4.8288z"/>
</svg>
