<?xml version="1.0" encoding="UTF-8"?>
<!-- Created with Inkscape (http://www.inkscape.org/) -->
<svg width="1393.6" height="699.68" version="1.1" viewBox="0 0 1393.6 699.68" xmlns="http://www.w3.org/2000/svg" xmlns:cc="http://creativecommons.org/ns#" xmlns:dc="http://purl.org/dc/elements/1.1/" xmlns:rdf="http://www.w3.org/1999/02/22-rdf-syntax-ns#">
 <metadata>
  <rdf:RDF>
   <cc:Work rdf:about="">
    <dc:format>image/svg+xml</dc:format>
    <dc:type rdf:resource="http://purl.org/dc/dcmitype/StillImage"/>
    <dc:title/>
   </cc:Work>
  </rdf:RDF>
 </metadata>
 <path d="m913.75 699.58c-2.7606-0.8848-5-3.5075-5-5.8557 0-1.5957-0.7064-2.4847-2.25-2.8313-37.652-8.4566-57.117-15.293-91.25-32.049-49.607-24.352-92.374-54.634-169.5-120.02-49.477-41.946-66.72-56.023-89.5-73.066-58.334-43.645-107.44-66.215-161-73.992-16.54-2.4018-50.518-2.4135-67-0.023-56.754 8.2309-109.41 32.099-160.84 72.907-58.593 46.489-108.76 109.87-143.46 181.23-4.5412 9.3406-9.0313 18.553-9.9779 20.472-2.307 4.6762-6.252 6.5851-9.9479 4.8136-1.4997-0.7187-3.1597-2.538-3.6889-4.0427-1.1593-3.2964 0.19596-6.8864 11.598-30.723 19.368-40.492 42.611-76.365 73.996-114.21 13.132-15.834 48.984-51.79 63.821-64.006 58.33-48.025 116.8-75.516 179.5-84.396 16.589-2.3492 51.52-2.3672 68.5-0.035 32.782 4.502 61.737 13.577 94.5 29.619 32.479 15.903 63.316 36.16 101.86 66.913 7.072 5.6428 13.193 9.8808 13.602 9.4178 0.4093-0.4629 5.7495-8.2667 11.867-17.342 16.459-24.415 54.897-73.418 86.482-110.25 65.885-76.834 123.84-120.66 196.69-148.72 17.141-6.6037 45.472-15.712 70-22.504 75.908-21.021 90.032-25.253 117.5-35.206 44.388-16.085 77.082-32.121 107.48-52.717 14.411-9.7647 22.775-17.712 23.614-22.438 0.9014-5.0746 3.455-8.9717 9.8279-14.999 4.1664-3.9405 6.1961-5.1635 8.5691-5.1635 4.6584 0 8.3823 2.3767 12.488 7.9704 2.0306 2.7663 4.1067 5.0296 4.6135 5.0296s1.931-1.2106 3.1648-2.6903c4.6038-5.521 10.497-12.131 20.781-23.31 5.8188-6.325 13.316-15.1 16.66-19.5 6.6475-8.7462 9.8304-11.977 15.594-15.832 3.719-2.4869 3.8904-2.5063 8.9225-1.0119 6.1007 1.8117 8.4973 3.2224 15.786 9.2918 3.025 2.5191 7.375 5.8465 9.6666 7.3942 9.0293 6.0983 20.474 20.098 27.107 33.158 1.676 3.3 6.0707 9.6 9.7661 14 9.8488 11.727 11.044 15.416 7.5114 23.196-1.5007 3.3056-3.0346 4.7645-7.228 6.8746-2.9277 1.4731-8.923 5.0243-13.323 7.8916-4.4 2.8672-14.075 8.9797-21.5 13.583-7.425 4.6035-15.849 10.015-18.72 12.025l-5.2205 3.6553 4.4405 5.7185c4.889 6.296 6.3332 11.13 4.5856 15.35-1.4799 3.5729-10.726 9.7045-24.373 16.163-10.27 4.8602-11.399 5.7165-23.51 17.824-35.919 35.909-68.673 83.36-99.205 143.72-14.209 28.09-17.609 35.519-40.497 88.5-27.93 64.652-42.079 94.059-57.976 120.5-31.545 52.467-69.48 94.148-116.64 128.16l-12.254 8.8376 8.4364 0.3333c23.796 0.9402 62.445-5.3954 94.936-15.563 23.863-7.4673 39.601-13.729 75.273-29.948 22.867-10.397 25.927-11.045 28.696-6.072 1.3641 2.4499 1.3675 3.0426 0.031 5.4314-3.0767 5.5-39.053 25.109-68.624 37.404-52.28 21.737-108.19 31.195-159.37 26.959-8.5573-0.7082-11.14-0.5906-14 0.6375-6.7828 2.9122-10.522 4.0139-12.007 3.5379zm30.536-35.02c28.382-18.589 46.283-32.976 68.023-54.67 45.658-45.561 73.539-91.139 116.24-190.03 26.85-62.176 42.579-95.377 59.582-125.77 28.87-51.602 72.789-109.43 99.327-130.77 4.7026-3.7831 11.736-8.0789 18.118-11.067l10.432-4.8834-2.4671-3.1992c-3.0614-3.9698-4.4455-4.4852-5.2487-1.9546-0.3428 1.0801-2.9685 3.7555-5.8349 5.9453-2.8663 2.1898-11.718 9.9047-19.671 17.144-7.9525 7.2396-18.978 16.601-24.5 20.804-5.5225 4.2025-13.959 11.13-18.748 15.394-12.708 11.315-18.684 11.674-24.897 1.4941-1.7236-2.8242-8.849-10.985-15.834-18.135-14.294-14.631-15.266-15.953-17.58-23.914-3.0354-10.441 0.1218-17.079 14.018-29.474 3.85-3.4339 10.424-8.6549 14.61-11.602 4.1855-2.9473 11.54-9.6153 16.343-14.818 4.8028-5.2025 10.769-10.974 13.257-12.826 2.4885-1.8516 5.57-4.8939 6.8477-6.7607l2.323-3.3942-3.6903-5.3179c-2.0296-2.9248-4.1402-5.3343-4.6902-5.3544-0.55-0.02-1.7603 2.5503-2.6895 5.7121-1.9928 6.7808-6.125 11.928-16.137 20.101-28.961 23.641-81.162 50.315-133.67 68.304-18.906 6.477-47.956 15.211-76.006 22.851-37.176 10.126-56.564 15.813-75.274 22.081-103.73 34.751-165.09 85.166-273.11 224.41-9.3867 12.1-23.039 29.2-30.338 38s-13.272 16.502-13.273 17.114c0 1.206 48.299 42.282 80.237 68.234 34.261 27.84 67.72 51.872 92.228 66.242 9.5445 5.5964 10.05 5.7741 10.377 3.6461 0.5788-3.7671 12.056-14.488 23.914-22.336 8.9893-5.9502 16.344-12.34 36.5-31.713 29.112-27.981 33.685-32.202 43.242-39.919 8.1752-6.6013 43.118-41.224 83.5-82.737 43.783-45.008 53.071-53.952 56.072-53.995 1.9726-0.028 4.3048-2.056 10-8.6943 4.0851-4.7616 12.379-13.015 18.43-18.341 12.065-10.619 25.497-24.522 25.497-26.393 0-0.6536-4.0053-2.8844-8.9006-4.9573-7.7853-3.2966-20.101-10.036-29.599-16.198l-3-1.9461 2.7978 3.3798c6.9353 8.3781 8.6521 17.402 4.5812 24.08-1.1624 1.9068-15.899 17.214-32.748 34.015-21.132 21.071-32.34 31.516-36.133 33.67-3.0238 1.7169-9.0978 6.2373-13.498 10.045s-13.882 11.846-21.072 17.864c-24.504 20.509-41.16 35.313-57.552 51.156-9.0068 8.7051-19.301 18.28-22.876 21.277-3.575 2.997-10.79 9.5121-16.032 14.478-9.6602 9.1499-17.673 15.48-50.964 40.261-10.173 7.5724-22.194 17.497-26.714 22.054-9.5281 9.6065-13.743 11.879-18.883 10.183-5.5536-1.8329-7.3841-8.3216-3.3061-11.719 1.1552-0.9625 5.9927-5.5803 10.75-10.262 4.9096-4.8314 21.483-18.134 38.331-30.765 16.325-12.239 34.325-26.644 40-32.01 5.6752-5.366 13.244-12.221 16.818-15.233s13.793-12.523 22.707-21.136c18.713-18.081 40.644-37.232 84.293-73.611 6.325-5.2716 14.054-11.98 17.176-14.909 3.1216-2.9281 6.2885-5.3239 7.0376-5.3239 1.3449 0 7.3803-5.8972 13.627-13.315 1.767-2.0982 6.3207-6.5982 10.119-10 3.7987-3.4017 10.348-10.145 14.554-14.985 8.7453-10.064 8.9387-8.1352-1.9229-19.176-13.377-13.598-22.388-26.207-31.667-44.31l-3.735-7.2872-3.0984 5.2872c-3.6753 6.2715-11.868 17.762-25.657 35.985-5.5363 7.3164-12.542 17.128-15.57 21.802-3.0269 4.675-8.3092 11.875-11.739 16-12.409 14.926-50.838 53.43-67.626 67.757-17.541 14.97-60.506 57.497-75.008 74.243-4.5248 5.225-15.374 16.536-24.11 25.135s-22.157 22.427-29.826 30.728c-7.6686 8.3008-15.387 15.778-17.151 16.615-6.5728 3.119-12.406 0.8636-12.406-4.7968 0-2.867 3.4424-6.6914 32.577-36.193 17.918-18.143 35.291-36.138 38.607-39.988 14.641-16.996 55.562-57.733 74.315-73.982 24.343-21.092 50.824-47.749 55.354-55.722 4.4106-7.764 10.028-15.251 21.324-28.425 17.621-20.549 36.986-46.821 50.934-69.1 2.2384-3.5755 3.8533-7.6176 4.2454-10.627 0.89208-6.8458 5.041-13.853 12.115-20.463 9.2406-8.6336 15.933-11.723 32.695-15.09 26.179-5.2598 27.628-5.1128 43.452 4.4084 17.462 10.507 26.165 19.641 40.97 43 11.714 18.482 14.803 27.105 14.865 41.501 0.041 9.5074-0.2177 11.035-2.7343 16.16-3.6314 7.3948-9.2457 13.067-16.616 16.788-3.495 1.7643-6.2292 3.8705-6.619 5.0988-1.6305 5.137-18.615 23.411-33.32 35.851-4.0342 3.4127-11.382 10.438-16.327 15.611-4.9458 5.1733-9.7715 9.6534-10.724 9.9556-2.2011 0.6986-21.894 20.154-58.114 57.412-49.224 50.634-73.744 74.778-85.5 84.188-4.4 3.5216-13.636 11.811-20.525 18.42-29.965 28.748-43.706 41.327-46.975 43.002-7.0069 3.5889-23.59 15.47-25.84 18.513-1.2696 1.7172-3.637 3.9303-5.261 4.9179-2.2749 1.3834-2.6595 2.0317-1.6758 2.8245 3.8947 3.1387 31.403 15.626 47.777 21.689 18.68 6.916 28.839 9.6805 58.5 15.919 7.7698 1.6341 9.5894 0.9692 25.036-9.1481zm172.94-341.49c2.1888-1.2397 5.026-4.0448 6.3048-6.2336 2.0276-3.4704 2.2677-4.9504 1.8762-11.566-0.5845-9.8739-3.3462-16.577-13.055-31.684-12.758-19.853-20.261-26.939-41.973-39.638l-3.2642-1.9091-14.934 3.2602c-16.517 3.6058-20.695 5.52-28.376 13.001-3.5854 3.4923-5.0587 5.7051-5.0587 7.5979 0 11.362 12.852 36.286 26.061 50.542 4.8532 5.2378 4.9423 5.2847 2.6935 1.417-3.3782-5.8101-4.3906-8.4284-5.7025-14.748-0.9844-4.7418-0.9015-6.7367 0.5172-12.45 2.9265-11.784 5.4708-15.654 13.295-20.224 3.7843-2.2102 8.9156-4.5628 11.403-5.228 4.2134-1.127 4.888-1.0208 9.8772 1.5541 2.9453 1.52 8.7481 4.4726 12.895 6.5613 8.4573 4.2595 18.062 12.453 19.955 17.022 2.3201 5.6012 0.7762 12.505-5.8537 26.175-3.3778 6.9646-6.1414 13.064-6.1414 13.553 0 1.539 8.3425 5.1579 12 5.2055 1.925 0.025 5.2908-0.9687 7.4796-2.2083zm-28.983-23.951 5.9965-11.609-2.4076-2.5627c-1.3242-1.4095-6.8903-4.8021-12.369-7.5391-9.3377-4.6647-10.13-4.8888-12.662-3.5799-3.773 1.9511-4.803 3.4435-5.9697 8.6495-1.3769 6.1439 0.019 10.708 5.2205 17.07 4.3973 5.3778 13.227 12.118 15.1 11.526 0.6022-0.1904 3.7933-5.5701 7.0913-11.955zm143.43-113.54c3.0677-2.6295 10.482-8.592 16.477-13.25 5.9947-4.6579 16.12-13.366 22.5-19.351 6.3803-5.9849 13.851-12.677 16.601-14.872s6.5556-5.3531 8.4568-7.0193l3.4569-3.0296-4.9569-4.4998c-2.7262-2.4748-10.536-9.0444-17.355-14.599-6.8193-5.5546-13.597-11.078-15.063-12.275l-2.6639-2.1757-4.1716 4.843c-2.2944 2.6636-5.6413 5.3647-7.4375 6.0025-2.0452 0.7261-6.2557 4.5367-11.266 10.196-4.5231 5.1091-12.129 12.115-17.5 16.119-5.225 3.8955-12.538 9.9934-16.25 13.551-5.8826 5.6371-6.7492 6.929-6.7434 10.054 0 1.9722 0.8205 4.8202 1.8153 6.3288 1.5832 2.4009 26.99 28.284 28.1 28.627 0.2324 0.072 2.9324-2.0211 6-4.6507zm93.585-73.833c5.4958-3.6378 13.592-10.139 17.992-14.448 6.5259-6.3903 9.9062-8.7727 18.345-12.929l10.345-5.095-2.5626-3.207c-4.2907-5.3695-9.129-12.804-13.74-21.114-4.9129-8.8535-14.695-19.36-27.389-29.416l-7.9813-6.3229-10.562 10.823c-5.809 5.9526-13.157 14.348-16.328 18.657-3.1714 4.3088-8.2099 10.492-11.197 13.741s-5.4306 6.5068-5.4306 7.2398-1.5579 3.5239-3.462 6.202c-2.8011 3.9398-3.2316 5.1469-2.2553 6.3233 0.6637 0.7997 7.7341 6.7426 15.712 13.206 7.9779 6.4638 17.205 14.252 20.505 17.308s6.4534 5.5755 7.0076 5.6003c0.5542 0.025 5.5042-2.9313 11-6.5691z" fill="#005aa7"/>
</svg>
