<?xml version="1.0" encoding="UTF-8"?>
<!-- Created with Inkscape (http://www.inkscape.org/) -->
<svg width="1625.9" height="2081.7" version="1.1" viewBox="0 0 1625.9 2081.7" xmlns="http://www.w3.org/2000/svg" xmlns:cc="http://creativecommons.org/ns#" xmlns:dc="http://purl.org/dc/elements/1.1/" xmlns:rdf="http://www.w3.org/1999/02/22-rdf-syntax-ns#">
 <metadata>
  <rdf:RDF>
   <cc:Work rdf:about="">
    <dc:format>image/svg+xml</dc:format>
    <dc:type rdf:resource="http://purl.org/dc/dcmitype/StillImage"/>
    <dc:title/>
   </cc:Work>
  </rdf:RDF>
 </metadata>
 <path d="m43.982 2079.8c-3.7754-3.7754-2.6686-7.3495 6.162-19.9 48.565-69.022 107.36-126.22 165.84-161.33 30.709-18.439 59.987-30.015 91-35.982 9.8336-1.8919 14.76-2.2046 34-2.1582 21.331 0.052 23.227 0.2144 36.5 3.1363 24.235 5.3351 47.828 15.304 71.586 30.248 20.98 13.196 40.688 28.597 72.438 56.607 60.12 53.038 79.53 67.705 110.33 83.368 49.725 25.29 102.63 27.908 150.25 7.4352 6.9349-2.9814 13.25-5.4207 14.034-5.4207 3.0651 0 5.8696 3.0587 5.8696 6.4017 0 4.28-1.3148 5.2905-14.349 11.028-35.241 15.513-64.265 20.781-94.651 17.181-31.245-3.7015-60.393-14.833-91.95-35.115-23.165-14.889-38.891-27.556-82.946-66.81-38.992-34.743-56.429-48.687-77.434-61.924-63.479-40.003-125.1-41.697-197.35-5.4266-35.05 17.594-68.979 43.309-106.4 80.641-29.144 29.074-50.977 54.549-72.868 85.024-4.5434 6.325-9.1634 12.288-10.267 13.25-2.6767 2.3354-7.3174 2.2168-9.7842-0.25zm1397-945.94c-48.281-3.9238-94.929-20.92-136.66-49.791-36.997-25.597-68.598-57.7-120.86-122.77-35.413-44.098-51.52-62.482-73.596-84.001-36.546-35.623-69.421-54.976-103.52-60.94-11.558-2.0216-34.157-2.021-45.874 0-59.042 10.19-123.71 60.577-186.68 145.45-26.576 35.822-58.706 89.482-76.379 127.56-5.003 10.779-7.265 13.434-11.444 13.434-4.4812 0-7.3512-3.3478-6.7433-7.8661 0.5927-4.406 17.258-38.566 29.699-60.875 32.834-58.879 69.707-109.02 110.37-150.09 64.558-65.203 127.8-93.698 186.97-84.235 46.936 7.5071 91.008 35.833 140.14 90.069 12.721 14.043 22.538 25.694 61.556 73.057 45.454 55.176 74.865 84.086 108.51 106.66 33.159 22.251 66.656 35.639 106 42.365 17.638 3.0151 53.216 3.7305 72 1.4477 41.374-5.0282 84.859-18.739 112.62-35.51 5.8847-3.5549 11.119-6.0242 12.771-6.0242 5.6826 0 8.1346 6.8026 3.8585 10.704-5.6179 5.1261-37.256 23.256-52.918 30.324-19.995 9.0233-45.861 16.153-70.832 19.522-13.397 1.8079-45.308 2.6267-59 1.5138zm-1439-964.06c-3.5745-3.5745-2.5755-7.209 5.1449-18.716 45.354-67.599 104.25-116.88 165.36-138.36 27.307-9.5985 53.59-13.497 85-12.609 33.209 0.93892 55.187 4.7461 114.5 19.835 51.046 12.986 57.437 14.527 78 18.816 35.159 7.332 59.984 10.508 93.5 11.962 58.914 2.556 117.68-5.6895 189-26.517 26.69-7.7948 29.802-8.3558 32.55-5.8691 2.5019 2.2641 2.5098 6.9952 0.015 9.131-2.7803 2.3805-24.86 10.527-44.065 16.258-57.118 17.044-102.83 24.048-157.05 24.06-58.455 0.0136-98.023-6.2902-187.95-29.943-67.185-17.671-92.244-22.06-125.86-22.043-57.143 0.0292-107.11 20.403-159.06 64.854-20.325 17.391-49.57 49.475-68.033 74.638-10.002 13.632-12.825 16.5-16.242 16.5-1.5421 0-3.7038-0.9-4.8038-2z" fill="#005aa7"/>
</svg>
